    <svg xmlns="http://www.w3.org/2000/svg" height={60} width={60} viewBox="0 0 512 512" fill="none">
                                <circle cx="255.5" cy="256.5" r="83.5" fill="#81B8FB" fill-opacity="0.5"></circle>
                                <path d="M256 176C265.717 175.985 275.356 177.748 284.44 181.2C285.422 181.573 286.468 181.749 287.518 181.717C288.569 181.686 289.602 181.448 290.561 181.017C291.519 180.586 292.383 179.971 293.104 179.206C293.824 178.441 294.387 177.542 294.76 176.56C295.133 175.578 295.309 174.531 295.277 173.481C295.246 172.431 295.008 171.397 294.577 170.439C294.146 169.481 293.531 168.617 292.766 167.896C292.001 167.176 291.102 166.613 290.12 166.24C269.566 158.425 246.953 157.903 226.06 164.761C205.168 171.619 187.263 185.441 175.34 203.917C163.416 222.393 158.197 244.402 160.554 266.264C162.912 288.127 172.703 308.517 188.291 324.026C203.879 339.536 224.319 349.223 246.193 351.47C268.067 353.717 290.049 348.386 308.464 336.369C326.879 324.352 340.611 306.378 347.363 285.451C354.115 264.524 353.479 241.914 345.56 221.4C345.203 220.391 344.648 219.463 343.927 218.673C343.206 217.882 342.334 217.244 341.362 216.796C340.39 216.349 339.338 216.101 338.268 216.067C337.199 216.033 336.133 216.215 335.135 216.6C334.137 216.985 333.226 217.567 332.456 218.311C331.687 219.055 331.074 219.945 330.655 220.93C330.236 221.914 330.019 222.973 330.016 224.043C330.013 225.113 330.225 226.173 330.64 227.16C336.797 243.092 337.694 260.576 333.199 277.054C328.704 293.532 319.053 308.139 305.658 318.737C292.263 329.335 275.828 335.368 258.758 335.953C241.688 336.538 224.878 331.644 210.79 321.987C196.701 312.331 186.073 298.418 180.461 282.286C174.849 266.155 174.547 248.65 179.6 232.334C184.652 216.018 194.794 201.748 208.542 191.611C222.289 181.475 238.919 176.004 256 176Z" fill="#35476B"></path>
                                <path d="M392.001 57.3911L434.5 18.4999L434.5 69.0001L392 110.5L392.001 57.3911Z" fill="#81B8FB" fill-opacity="0.5"></path>
                                <path d="M459.609 115.562L402 115.72L435.991 78.3706L495.355 76.2836L459.609 115.562Z" fill="#81B8FB" fill-opacity="0.5"></path>
                                <path d="M443.08 0.599953C441.619 -0.00768006 440.011 -0.168592 438.459 0.13756C436.907 0.443711 435.48 1.20318 434.36 2.31995L386.36 50.32C385.611 51.0642 385.017 51.9492 384.612 52.9241C384.207 53.8989 383.999 54.9443 384 56V116.68L252.2 248.48C250.699 249.981 249.855 252.017 249.855 254.14C249.855 256.263 250.699 258.299 252.2 259.8C253.701 261.301 255.737 262.144 257.86 262.144C259.983 262.144 262.019 261.301 263.52 259.8L395.32 128H456C458.118 127.991 460.147 127.142 461.64 125.64L509.64 77.64C510.752 76.5213 511.509 75.0988 511.814 73.5514C512.12 72.004 511.962 70.4007 511.359 68.943C510.757 67.4853 509.736 66.2383 508.427 65.3588C507.117 64.4794 505.577 64.0066 504 64H459.32L477.68 45.64C479.181 44.1388 480.024 42.1029 480.024 39.98C480.024 37.857 479.181 35.8211 477.68 34.32C476.179 32.8188 474.143 31.9755 472.02 31.9755C469.897 31.9755 467.861 32.8188 466.36 34.32L448 52.68V7.99995C448.003 6.41828 447.538 4.87113 446.662 3.554C445.786 2.23688 444.54 1.20889 443.08 0.599953ZM400 59.32L432 27.32V68.68L400 100.68V59.32ZM484.68 80L452.68 112H411.32L443.32 80H484.68Z" fill="#35476B"></path>
                                <path d="M446.679 247H408C405.613 247 403.324 247.948 401.636 249.636C399.948 251.324 399 253.613 399 256C399 258.387 399.948 260.676 401.636 262.364C403.324 264.052 405.613 265 408 265H446.753C444.462 312.451 424.585 357.365 390.975 390.975C357.365 424.585 312.451 444.462 265 446.753V408C265 405.613 264.052 403.324 262.364 401.636C260.676 399.948 258.387 399 256 399C253.613 399 251.324 399.948 249.636 401.636C247.948 403.324 247 405.613 247 408V446.753C199.549 444.462 154.635 424.585 121.025 390.975C87.4154 357.365 67.5381 312.451 65.2466 265H104C106.387 265 108.676 264.052 110.364 262.364C112.052 260.676 113 258.387 113 256C113 253.613 112.052 251.324 110.364 249.636C108.676 247.948 106.387 247 104 247H65.2466C67.5381 199.549 87.4154 154.635 121.025 121.025C154.635 87.4154 199.549 67.5381 247 65.2466V100C247 102.387 247.948 104.676 249.636 106.364C251.324 108.052 253.613 109 256 109C258.387 109 260.676 108.052 262.364 106.364C264.052 104.676 265 102.387 265 100V65.3226C296.99 66.7436 328.111 76.2105 355.48 92.8544L355.547 92.8949L355.619 92.9245C357.627 93.7523 359.867 93.8259 361.925 93.1316C363.984 92.4373 365.721 91.0221 366.818 89.147C367.914 87.2719 368.296 85.0635 367.892 82.9293C367.487 80.795 366.325 78.8789 364.619 77.5345L364.572 77.4979L364.522 77.467C334.45 59.0708 300.208 48.6051 265 47.0412V8C265 5.61306 264.052 3.32387 262.364 1.63604C260.676 -0.0517869 258.387 -1 256 -1C253.613 -1 251.324 -0.0517889 249.636 1.63604C247.948 3.32387 247 5.61305 247 8V47.241C194.775 49.549 145.292 71.3289 108.31 108.31C71.3289 145.292 49.549 194.775 47.241 247H8C5.61305 247 3.32387 247.948 1.63604 249.636C-0.0517889 251.324 -1 253.613 -1 256C-1 258.387 -0.0517869 260.676 1.63604 262.364C3.32387 264.052 5.61306 265 8 265H47.241C49.549 317.225 71.3289 366.708 108.31 403.69C145.292 440.671 194.775 462.451 247 464.759V504C247 506.387 247.948 508.676 249.636 510.364C251.324 512.052 253.613 513 256 513C258.387 513 260.676 512.052 262.364 510.364C264.052 508.676 265 506.387 265 504V464.759C317.225 462.451 366.708 440.671 403.69 403.69C440.671 366.708 462.451 317.225 464.759 265H504C506.387 265 508.676 264.052 510.364 262.364C512.052 260.676 513 258.387 513 256C513 253.613 512.052 251.324 510.364 249.636C508.676 247.948 506.387 247 504 247H464.962C463.515 211.83 453.187 177.592 434.935 147.482L434.934 147.48C433.693 145.44 431.692 143.976 429.372 143.41C427.051 142.845 424.601 143.225 422.56 144.466C420.52 145.707 419.056 147.708 418.49 150.028C417.925 152.349 418.304 154.799 419.546 156.84C435.997 184.153 445.324 215.155 446.679 247Z" fill="#35476B" stroke="#35476B" stroke-width="2"></path>
                            </svg>