  <svg xmlns="http://www.w3.org/2000/svg" height={60} width={60} viewBox="0 0 512 512" fill="none">
                                <path d="M8.11726 240.029L59.3983 110.042C60.9823 106.028 65.5193 104.058 69.5333 105.641L110.338 121.739C114.352 123.323 116.322 127.86 114.739 131.874L63.4593 261.862C61.8763 265.876 57.3383 267.846 53.3243 266.263L12.5193 250.165C8.50426 248.581 6.53426 244.043 8.11726 240.029Z" fill="#81B8FB" fill-opacity="0.5"></path>
                                <path d="M504.022 240.029L452.741 110.042C451.157 106.028 446.62 104.058 442.606 105.641L401.801 121.739C397.787 123.323 395.817 127.86 397.4 131.874L448.681 261.862C450.264 265.876 454.802 267.846 458.816 266.263L499.621 250.165C503.635 248.581 505.605 244.043 504.022 240.029Z" fill="#81B8FB" fill-opacity="0.5"></path>
                                <mask id="path-3-outside-1_737_122" maskUnits="userSpaceOnUse" x="-2" y="95.9016" width="516" height="320" fill="black">
                                    <rect fill="white" x="-2" y="95.9016" width="516" height="320"></rect>
                                    <path d="M9.69906 257.448L50.504 273.546C55.896 275.672 61.775 274.549 65.9799 271.025L98.2939 291.404L103.836 295.3C96.8059 306.426 98.6069 321.63 109.296 330.693C115.169 335.673 122.632 337.798 129.937 337.002C130.366 344.681 133.858 351.52 139.541 356.337C145.126 361.073 152.417 363.498 160.181 362.651C160.613 370.327 164.103 377.164 169.786 381.982C175.423 386.762 182.728 389.136 190.439 388.295C190.842 395.526 194.085 402.585 200.031 407.627C211.517 417.368 228.796 415.955 238.535 404.47L245.019 396.859L255.946 404.923C274.838 418.868 301.539 407.444 304.002 384.265C323.48 391.343 344.162 377.692 344.462 356.728C362.822 360.18 379.114 346.845 380.137 329.157C403.952 335.518 425.493 311.452 414.977 287.92L444.177 269.165C448.358 274.118 455.306 275.989 461.501 273.545L502.306 257.448C510.16 254.35 514.031 245.439 510.932 237.583L492.282 190.309C490.762 186.455 486.405 184.565 482.553 186.085C478.699 187.605 476.808 191.961 478.328 195.814L496.977 243.087C497.041 243.248 496.962 243.431 496.801 243.495L455.996 259.592C455.834 259.655 455.653 259.577 455.589 259.416C454.16 255.794 408.359 139.694 404.309 129.428C404.294 129.392 404.261 129.308 404.313 129.189C404.365 129.07 404.45 129.037 404.485 129.022L445.291 112.924C445.326 112.909 445.409 112.876 445.531 112.928C445.649 112.98 445.682 113.064 445.697 113.1L465.468 163.214C466.989 167.068 471.345 168.958 475.197 167.438C479.051 165.918 480.942 161.562 479.422 157.709L459.651 107.596C456.554 99.7421 447.642 95.8721 439.788 98.9711L398.981 115.069C391.69 117.945 387.841 125.769 389.797 133.186L367.922 141.26C361.115 143.773 353.725 144.502 346.553 143.365L324.441 139.86C320.351 139.213 316.507 142.004 315.86 146.093C315.212 150.184 318.002 154.027 322.093 154.675L344.205 158.18C353.908 159.717 363.904 158.732 373.117 155.331L395.19 147.183C397.586 153.257 435.395 249.095 437.876 255.384L405.692 276.055L405.146 275.652C405.144 275.65 405.141 275.648 405.139 275.647C401.691 273.102 345.73 231.804 343.104 229.865C341.496 228.678 339.498 228.145 337.2 228.535C306.13 233.818 278.294 222.77 257.815 201.387C251.443 194.734 241.047 194.377 234.144 200.575C214.277 218.418 186.514 235.817 167.089 217.356C165.159 215.523 165.145 212.137 168.076 210.245C192.82 194.328 218.453 171.979 239.081 151.111C244.215 145.916 251.599 143.501 258.846 144.65L287.315 149.163C291.414 149.812 295.247 147.02 295.895 142.93C296.543 138.839 293.753 134.996 289.663 134.348L261.194 129.835C249.19 127.933 236.937 131.945 228.414 140.567C226.028 142.98 223.206 145.782 220.024 148.855C210.42 145.45 200.41 143.416 190.228 142.844C160.424 141.17 157.839 140.854 151.071 141.289C145.759 141.628 140.355 140.725 135.44 138.669L122.222 133.138C124.13 125.764 120.287 117.931 113.025 115.067L72.2199 98.9711C64.363 95.8711 55.453 99.7411 52.355 107.596L1.07408 237.583C-2.03091 245.455 1.82408 254.342 9.69906 257.448ZM136.371 317.821C131.976 323.005 124.183 323.648 118.997 319.252C113.777 314.826 113.185 307.046 117.556 301.891L136.107 280.117C140.398 275.054 148.212 274.22 153.481 278.686C158.677 283.091 159.319 290.863 154.911 296.06C154.909 296.062 154.908 296.064 154.906 296.066L136.371 317.821ZM166.615 343.467C162.21 348.662 154.441 349.304 149.242 344.897C144.022 340.471 143.43 332.691 147.801 327.536L166.352 305.762C170.959 300.326 179.498 299.851 184.639 305.189C184.673 305.224 184.702 305.263 184.736 305.299C188.97 309.802 189.246 316.882 185.156 321.706L166.615 343.467ZM196.86 369.111C192.439 374.326 184.662 374.929 179.487 370.541C174.267 366.116 173.674 358.336 178.045 353.181L196.597 331.406C201.004 326.21 208.826 325.61 213.971 329.976C219.155 334.373 219.796 342.166 215.401 347.35C215.399 347.352 215.398 347.354 215.396 347.356L196.86 369.111ZM245.747 372.863C245.716 372.901 245.689 372.943 245.657 372.98C242.665 376.492 234.42 386.169 227.105 394.755C222.71 399.94 214.917 400.581 209.732 396.186C204.547 391.79 203.906 383.997 208.29 378.826L226.842 357.051C231.262 351.837 239.046 351.236 244.215 355.621C249.301 359.931 250.08 367.623 245.747 372.863ZM116.832 147.146L129.649 152.509C136.683 155.452 144.423 156.749 152.03 156.26C157.766 155.891 159.681 156.153 189.384 157.822C195.483 158.165 201.513 159.109 207.402 160.641C192.727 173.893 176.247 187.176 159.74 197.776C149.157 204.57 147.589 219.522 156.756 228.234C169.285 240.139 197.304 253.825 244.166 211.738C245.006 210.984 246.242 210.994 246.979 211.765C269.679 235.459 301.854 248.694 336.601 243.811C340.538 246.578 332.915 240.992 396.229 287.719H396.23C403.006 292.719 404.901 302.553 399.596 309.34C394.557 315.787 385.452 317.036 378.873 312.179C369.985 305.619 376.547 310.612 345.302 286.537C342.018 284.008 337.311 284.619 334.782 287.9C332.255 291.181 332.865 295.89 336.145 298.419L362.068 318.393C366.534 324.277 366.002 332.78 360.715 338.054C355.517 343.241 346.961 343.731 340.812 339.195C334.867 334.808 339.806 338.567 312.54 317.575C309.258 315.047 304.548 315.661 302.022 318.943C299.495 322.225 300.107 326.934 303.389 329.461L326.375 347.158C330.716 352.773 330.503 360.849 325.763 366.223C320.663 372.005 311.627 372.81 305.189 368.058C294.844 360.424 300.036 364.366 280.115 348.947C276.839 346.412 272.129 347.012 269.593 350.288C267.058 353.564 267.658 358.274 270.934 360.809L286.868 373.142C290.493 378.911 289.784 386.467 285.017 391.453C279.814 396.896 271.145 397.499 264.851 392.854L254.769 385.414L257.085 382.695C261.703 377.251 264.087 370.2 263.477 362.781C262.857 355.266 259.286 348.736 253.915 344.18C248.328 339.443 241.031 337.016 233.269 337.858C232.861 330.612 229.538 323.513 223.67 318.535C218.104 313.816 211.038 311.548 203.755 312.143C203.512 312.163 203.269 312.186 203.028 312.213C203.014 311.973 203.006 311.733 202.986 311.492C202.509 305.693 200.249 300.322 196.534 295.989C196.511 295.962 196.49 295.935 196.467 295.908C190.557 289.071 181.759 285.617 172.792 286.581C172.37 279.05 168.956 272.144 163.18 267.246C151.685 257.501 134.408 258.923 124.675 270.403L113.372 283.67L106.765 279.026C106.663 278.954 106.559 278.884 106.453 278.818L73.1669 257.825C98.3319 194.038 88.9059 217.931 116.832 147.146ZM15.0271 243.089L66.3069 113.102C66.3559 112.978 66.4739 112.903 66.5989 112.903C66.6369 112.903 66.6759 112.91 66.7139 112.925L107.519 129.023C107.68 129.086 107.759 129.269 107.696 129.429C105.229 135.683 58.029 255.326 56.415 259.417C56.349 259.58 56.173 259.657 56.009 259.593L15.2041 243.495C15.0421 243.431 14.9621 243.25 15.0271 243.089Z"></path>
                                </mask>
                                <path d="M9.69906 257.448L50.504 273.546C55.896 275.672 61.775 274.549 65.9799 271.025L98.2939 291.404L103.836 295.3C96.8059 306.426 98.6069 321.63 109.296 330.693C115.169 335.673 122.632 337.798 129.937 337.002C130.366 344.681 133.858 351.52 139.541 356.337C145.126 361.073 152.417 363.498 160.181 362.651C160.613 370.327 164.103 377.164 169.786 381.982C175.423 386.762 182.728 389.136 190.439 388.295C190.842 395.526 194.085 402.585 200.031 407.627C211.517 417.368 228.796 415.955 238.535 404.47L245.019 396.859L255.946 404.923C274.838 418.868 301.539 407.444 304.002 384.265C323.48 391.343 344.162 377.692 344.462 356.728C362.822 360.18 379.114 346.845 380.137 329.157C403.952 335.518 425.493 311.452 414.977 287.92L444.177 269.165C448.358 274.118 455.306 275.989 461.501 273.545L502.306 257.448C510.16 254.35 514.031 245.439 510.932 237.583L492.282 190.309C490.762 186.455 486.405 184.565 482.553 186.085C478.699 187.605 476.808 191.961 478.328 195.814L496.977 243.087C497.041 243.248 496.962 243.431 496.801 243.495L455.996 259.592C455.834 259.655 455.653 259.577 455.589 259.416C454.16 255.794 408.359 139.694 404.309 129.428C404.294 129.392 404.261 129.308 404.313 129.189C404.365 129.07 404.45 129.037 404.485 129.022L445.291 112.924C445.326 112.909 445.409 112.876 445.531 112.928C445.649 112.98 445.682 113.064 445.697 113.1L465.468 163.214C466.989 167.068 471.345 168.958 475.197 167.438C479.051 165.918 480.942 161.562 479.422 157.709L459.651 107.596C456.554 99.7421 447.642 95.8721 439.788 98.9711L398.981 115.069C391.69 117.945 387.841 125.769 389.797 133.186L367.922 141.26C361.115 143.773 353.725 144.502 346.553 143.365L324.441 139.86C320.351 139.213 316.507 142.004 315.86 146.093C315.212 150.184 318.002 154.027 322.093 154.675L344.205 158.18C353.908 159.717 363.904 158.732 373.117 155.331L395.19 147.183C397.586 153.257 435.395 249.095 437.876 255.384L405.692 276.055L405.146 275.652C405.144 275.65 405.141 275.648 405.139 275.647C401.691 273.102 345.73 231.804 343.104 229.865C341.496 228.678 339.498 228.145 337.2 228.535C306.13 233.818 278.294 222.77 257.815 201.387C251.443 194.734 241.047 194.377 234.144 200.575C214.277 218.418 186.514 235.817 167.089 217.356C165.159 215.523 165.145 212.137 168.076 210.245C192.82 194.328 218.453 171.979 239.081 151.111C244.215 145.916 251.599 143.501 258.846 144.65L287.315 149.163C291.414 149.812 295.247 147.02 295.895 142.93C296.543 138.839 293.753 134.996 289.663 134.348L261.194 129.835C249.19 127.933 236.937 131.945 228.414 140.567C226.028 142.98 223.206 145.782 220.024 148.855C210.42 145.45 200.41 143.416 190.228 142.844C160.424 141.17 157.839 140.854 151.071 141.289C145.759 141.628 140.355 140.725 135.44 138.669L122.222 133.138C124.13 125.764 120.287 117.931 113.025 115.067L72.2199 98.9711C64.363 95.8711 55.453 99.7411 52.355 107.596L1.07408 237.583C-2.03091 245.455 1.82408 254.342 9.69906 257.448ZM136.371 317.821C131.976 323.005 124.183 323.648 118.997 319.252C113.777 314.826 113.185 307.046 117.556 301.891L136.107 280.117C140.398 275.054 148.212 274.22 153.481 278.686C158.677 283.091 159.319 290.863 154.911 296.06C154.909 296.062 154.908 296.064 154.906 296.066L136.371 317.821ZM166.615 343.467C162.21 348.662 154.441 349.304 149.242 344.897C144.022 340.471 143.43 332.691 147.801 327.536L166.352 305.762C170.959 300.326 179.498 299.851 184.639 305.189C184.673 305.224 184.702 305.263 184.736 305.299C188.97 309.802 189.246 316.882 185.156 321.706L166.615 343.467ZM196.86 369.111C192.439 374.326 184.662 374.929 179.487 370.541C174.267 366.116 173.674 358.336 178.045 353.181L196.597 331.406C201.004 326.21 208.826 325.61 213.971 329.976C219.155 334.373 219.796 342.166 215.401 347.35C215.399 347.352 215.398 347.354 215.396 347.356L196.86 369.111ZM245.747 372.863C245.716 372.901 245.689 372.943 245.657 372.98C242.665 376.492 234.42 386.169 227.105 394.755C222.71 399.94 214.917 400.581 209.732 396.186C204.547 391.79 203.906 383.997 208.29 378.826L226.842 357.051C231.262 351.837 239.046 351.236 244.215 355.621C249.301 359.931 250.08 367.623 245.747 372.863ZM116.832 147.146L129.649 152.509C136.683 155.452 144.423 156.749 152.03 156.26C157.766 155.891 159.681 156.153 189.384 157.822C195.483 158.165 201.513 159.109 207.402 160.641C192.727 173.893 176.247 187.176 159.74 197.776C149.157 204.57 147.589 219.522 156.756 228.234C169.285 240.139 197.304 253.825 244.166 211.738C245.006 210.984 246.242 210.994 246.979 211.765C269.679 235.459 301.854 248.694 336.601 243.811C340.538 246.578 332.915 240.992 396.229 287.719H396.23C403.006 292.719 404.901 302.553 399.596 309.34C394.557 315.787 385.452 317.036 378.873 312.179C369.985 305.619 376.547 310.612 345.302 286.537C342.018 284.008 337.311 284.619 334.782 287.9C332.255 291.181 332.865 295.89 336.145 298.419L362.068 318.393C366.534 324.277 366.002 332.78 360.715 338.054C355.517 343.241 346.961 343.731 340.812 339.195C334.867 334.808 339.806 338.567 312.54 317.575C309.258 315.047 304.548 315.661 302.022 318.943C299.495 322.225 300.107 326.934 303.389 329.461L326.375 347.158C330.716 352.773 330.503 360.849 325.763 366.223C320.663 372.005 311.627 372.81 305.189 368.058C294.844 360.424 300.036 364.366 280.115 348.947C276.839 346.412 272.129 347.012 269.593 350.288C267.058 353.564 267.658 358.274 270.934 360.809L286.868 373.142C290.493 378.911 289.784 386.467 285.017 391.453C279.814 396.896 271.145 397.499 264.851 392.854L254.769 385.414L257.085 382.695C261.703 377.251 264.087 370.2 263.477 362.781C262.857 355.266 259.286 348.736 253.915 344.18C248.328 339.443 241.031 337.016 233.269 337.858C232.861 330.612 229.538 323.513 223.67 318.535C218.104 313.816 211.038 311.548 203.755 312.143C203.512 312.163 203.269 312.186 203.028 312.213C203.014 311.973 203.006 311.733 202.986 311.492C202.509 305.693 200.249 300.322 196.534 295.989C196.511 295.962 196.49 295.935 196.467 295.908C190.557 289.071 181.759 285.617 172.792 286.581C172.37 279.05 168.956 272.144 163.18 267.246C151.685 257.501 134.408 258.923 124.675 270.403L113.372 283.67L106.765 279.026C106.663 278.954 106.559 278.884 106.453 278.818L73.1669 257.825C98.3319 194.038 88.9059 217.931 116.832 147.146ZM15.0271 243.089L66.3069 113.102C66.3559 112.978 66.4739 112.903 66.5989 112.903C66.6369 112.903 66.6759 112.91 66.7139 112.925L107.519 129.023C107.68 129.086 107.759 129.269 107.696 129.429C105.229 135.683 58.029 255.326 56.415 259.417C56.349 259.58 56.173 259.657 56.009 259.593L15.2041 243.495C15.0421 243.431 14.9621 243.25 15.0271 243.089Z" fill="#35476B"></path>
                                <path d="M9.69906 257.448L50.504 273.546C55.896 275.672 61.775 274.549 65.9799 271.025L98.2939 291.404L103.836 295.3C96.8059 306.426 98.6069 321.63 109.296 330.693C115.169 335.673 122.632 337.798 129.937 337.002C130.366 344.681 133.858 351.52 139.541 356.337C145.126 361.073 152.417 363.498 160.181 362.651C160.613 370.327 164.103 377.164 169.786 381.982C175.423 386.762 182.728 389.136 190.439 388.295C190.842 395.526 194.085 402.585 200.031 407.627C211.517 417.368 228.796 415.955 238.535 404.47L245.019 396.859L255.946 404.923C274.838 418.868 301.539 407.444 304.002 384.265C323.48 391.343 344.162 377.692 344.462 356.728C362.822 360.18 379.114 346.845 380.137 329.157C403.952 335.518 425.493 311.452 414.977 287.92L444.177 269.165C448.358 274.118 455.306 275.989 461.501 273.545L502.306 257.448C510.16 254.35 514.031 245.439 510.932 237.583L492.282 190.309C490.762 186.455 486.405 184.565 482.553 186.085C478.699 187.605 476.808 191.961 478.328 195.814L496.977 243.087C497.041 243.248 496.962 243.431 496.801 243.495L455.996 259.592C455.834 259.655 455.653 259.577 455.589 259.416C454.16 255.794 408.359 139.694 404.309 129.428C404.294 129.392 404.261 129.308 404.313 129.189C404.365 129.07 404.45 129.037 404.485 129.022L445.291 112.924C445.326 112.909 445.409 112.876 445.531 112.928C445.649 112.98 445.682 113.064 445.697 113.1L465.468 163.214C466.989 167.068 471.345 168.958 475.197 167.438C479.051 165.918 480.942 161.562 479.422 157.709L459.651 107.596C456.554 99.7421 447.642 95.8721 439.788 98.9711L398.981 115.069C391.69 117.945 387.841 125.769 389.797 133.186L367.922 141.26C361.115 143.773 353.725 144.502 346.553 143.365L324.441 139.86C320.351 139.213 316.507 142.004 315.86 146.093C315.212 150.184 318.002 154.027 322.093 154.675L344.205 158.18C353.908 159.717 363.904 158.732 373.117 155.331L395.19 147.183C397.586 153.257 435.395 249.095 437.876 255.384L405.692 276.055L405.146 275.652C405.144 275.65 405.141 275.648 405.139 275.647C401.691 273.102 345.73 231.804 343.104 229.865C341.496 228.678 339.498 228.145 337.2 228.535C306.13 233.818 278.294 222.77 257.815 201.387C251.443 194.734 241.047 194.377 234.144 200.575C214.277 218.418 186.514 235.817 167.089 217.356C165.159 215.523 165.145 212.137 168.076 210.245C192.82 194.328 218.453 171.979 239.081 151.111C244.215 145.916 251.599 143.501 258.846 144.65L287.315 149.163C291.414 149.812 295.247 147.02 295.895 142.93C296.543 138.839 293.753 134.996 289.663 134.348L261.194 129.835C249.19 127.933 236.937 131.945 228.414 140.567C226.028 142.98 223.206 145.782 220.024 148.855C210.42 145.45 200.41 143.416 190.228 142.844C160.424 141.17 157.839 140.854 151.071 141.289C145.759 141.628 140.355 140.725 135.44 138.669L122.222 133.138C124.13 125.764 120.287 117.931 113.025 115.067L72.2199 98.9711C64.363 95.8711 55.453 99.7411 52.355 107.596L1.07408 237.583C-2.03091 245.455 1.82408 254.342 9.69906 257.448ZM136.371 317.821C131.976 323.005 124.183 323.648 118.997 319.252C113.777 314.826 113.185 307.046 117.556 301.891L136.107 280.117C140.398 275.054 148.212 274.22 153.481 278.686C158.677 283.091 159.319 290.863 154.911 296.06C154.909 296.062 154.908 296.064 154.906 296.066L136.371 317.821ZM166.615 343.467C162.21 348.662 154.441 349.304 149.242 344.897C144.022 340.471 143.43 332.691 147.801 327.536L166.352 305.762C170.959 300.326 179.498 299.851 184.639 305.189C184.673 305.224 184.702 305.263 184.736 305.299C188.97 309.802 189.246 316.882 185.156 321.706L166.615 343.467ZM196.86 369.111C192.439 374.326 184.662 374.929 179.487 370.541C174.267 366.116 173.674 358.336 178.045 353.181L196.597 331.406C201.004 326.21 208.826 325.61 213.971 329.976C219.155 334.373 219.796 342.166 215.401 347.35C215.399 347.352 215.398 347.354 215.396 347.356L196.86 369.111ZM245.747 372.863C245.716 372.901 245.689 372.943 245.657 372.98C242.665 376.492 234.42 386.169 227.105 394.755C222.71 399.94 214.917 400.581 209.732 396.186C204.547 391.79 203.906 383.997 208.29 378.826L226.842 357.051C231.262 351.837 239.046 351.236 244.215 355.621C249.301 359.931 250.08 367.623 245.747 372.863ZM116.832 147.146L129.649 152.509C136.683 155.452 144.423 156.749 152.03 156.26C157.766 155.891 159.681 156.153 189.384 157.822C195.483 158.165 201.513 159.109 207.402 160.641C192.727 173.893 176.247 187.176 159.74 197.776C149.157 204.57 147.589 219.522 156.756 228.234C169.285 240.139 197.304 253.825 244.166 211.738C245.006 210.984 246.242 210.994 246.979 211.765C269.679 235.459 301.854 248.694 336.601 243.811C340.538 246.578 332.915 240.992 396.229 287.719H396.23C403.006 292.719 404.901 302.553 399.596 309.34C394.557 315.787 385.452 317.036 378.873 312.179C369.985 305.619 376.547 310.612 345.302 286.537C342.018 284.008 337.311 284.619 334.782 287.9C332.255 291.181 332.865 295.89 336.145 298.419L362.068 318.393C366.534 324.277 366.002 332.78 360.715 338.054C355.517 343.241 346.961 343.731 340.812 339.195C334.867 334.808 339.806 338.567 312.54 317.575C309.258 315.047 304.548 315.661 302.022 318.943C299.495 322.225 300.107 326.934 303.389 329.461L326.375 347.158C330.716 352.773 330.503 360.849 325.763 366.223C320.663 372.005 311.627 372.81 305.189 368.058C294.844 360.424 300.036 364.366 280.115 348.947C276.839 346.412 272.129 347.012 269.593 350.288C267.058 353.564 267.658 358.274 270.934 360.809L286.868 373.142C290.493 378.911 289.784 386.467 285.017 391.453C279.814 396.896 271.145 397.499 264.851 392.854L254.769 385.414L257.085 382.695C261.703 377.251 264.087 370.2 263.477 362.781C262.857 355.266 259.286 348.736 253.915 344.18C248.328 339.443 241.031 337.016 233.269 337.858C232.861 330.612 229.538 323.513 223.67 318.535C218.104 313.816 211.038 311.548 203.755 312.143C203.512 312.163 203.269 312.186 203.028 312.213C203.014 311.973 203.006 311.733 202.986 311.492C202.509 305.693 200.249 300.322 196.534 295.989C196.511 295.962 196.49 295.935 196.467 295.908C190.557 289.071 181.759 285.617 172.792 286.581C172.37 279.05 168.956 272.144 163.18 267.246C151.685 257.501 134.408 258.923 124.675 270.403L113.372 283.67L106.765 279.026C106.663 278.954 106.559 278.884 106.453 278.818L73.1669 257.825C98.3319 194.038 88.9059 217.931 116.832 147.146ZM15.0271 243.089L66.3069 113.102C66.3559 112.978 66.4739 112.903 66.5989 112.903C66.6369 112.903 66.6759 112.91 66.7139 112.925L107.519 129.023C107.68 129.086 107.759 129.269 107.696 129.429C105.229 135.683 58.029 255.326 56.415 259.417C56.349 259.58 56.173 259.657 56.009 259.593L15.2041 243.495C15.0421 243.431 14.9621 243.25 15.0271 243.089Z" stroke="#35476B" stroke-width="2" mask="url(#path-3-outside-1_737_122)"></path>
                            </svg>