<svg width="80" height="80" viewBox="0 0 80 80" fill="none" xmlns="http://www.w3.org/2000/svg">
<path d="M40 80C62.0914 80 80 62.0914 80 40C80 17.9086 62.0914 0 40 0C17.9086 0 0 17.9086 0 40C0 62.0914 17.9086 80 40 80Z" fill="#F2F1E8"/>
<path d="M69.6001 44.4004V66.2004C69.6001 67.3004 68.7001 68.2004 67.6001 68.2004H13.6001C12.5001 68.2004 11.6001 67.3004 11.6001 66.2004V44.4004H29.8001C29.8001 50.3004 34.7001 55.1004 40.6001 55.1004C46.5001 55.1004 51.3001 50.3004 51.4001 44.4004H69.6001Z" fill="white"/>
<path d="M69.6003 44.4004H63.3003V68.2004H69.6003V44.4004Z" fill="#EAEAEA"/>
<path d="M51.2999 44.4004C51.2999 50.3004 46.4999 55.1004 40.4999 55.1004C39.3999 55.1004 38.3999 54.9004 37.3999 54.6004C41.7999 53.3004 44.9999 49.2004 44.9999 44.4004H51.2999Z" fill="#EAEAEA"/>
<path d="M69.6001 44.4004H51.3001C51.3001 50.3004 46.5001 55.1004 40.5001 55.1004C34.6001 55.1004 29.8001 50.3004 29.7001 44.4004H11.6001L17.0001 34.4004C17.3001 33.8004 18.0001 33.4004 18.8001 33.4004H62.4001C63.1001 33.4004 63.8001 33.8004 64.2001 34.4004L69.6001 44.4004Z" fill="#EAEAEA"/>
<path d="M40.6 55.6008C34.6 55.6008 29.6 50.9008 29.3 44.9008H11.6C11.4 44.9008 11.3 44.8008 11.2 44.7008C11.1 44.5008 11.1 44.4008 11.2 44.2008L16.6 34.1008C17 33.3008 17.9 32.8008 18.8 32.8008H62.4C63.3 32.8008 64.2 33.3008 64.6 34.1008L70 44.2008C70.1 44.4008 70.1 44.5008 70 44.7008C69.9 44.9008 69.7 44.9008 69.6 44.9008H51.8C51.5 50.9008 46.6 55.6008 40.6 55.6008ZM12.4 43.9008H29.8C30.1 43.9008 30.3 44.1008 30.3 44.4008C30.3 50.0008 35 54.6008 40.6 54.6008C46.2 54.6008 50.8 50.0008 50.9 44.4008C50.9 44.1008 51.1 43.9008 51.4 43.9008H68.8L63.8 34.6008C63.5 34.1008 63 33.8008 62.5 33.8008H18.8C18.2 33.8008 17.7 34.1008 17.5 34.6008L12.4 43.9008Z" fill="#9B9B9B"/>
<path d="M67.6001 68.7004H13.6001C12.2001 68.7004 11.1001 67.6004 11.1001 66.2004V44.4004C11.1001 44.1004 11.3001 43.9004 11.6001 43.9004H29.8001C30.1001 43.9004 30.3001 44.1004 30.3001 44.4004C30.3001 50.0004 35.0001 54.6004 40.6001 54.6004C46.2001 54.6004 50.8001 50.0004 50.9001 44.4004C50.9001 44.1004 51.1001 43.9004 51.4001 43.9004H69.6001C69.9001 43.9004 70.1001 44.1004 70.1001 44.4004V66.2004C70.1001 67.6004 69.0001 68.7004 67.6001 68.7004ZM12.1001 44.9004V66.2004C12.1001 67.0004 12.8001 67.7004 13.6001 67.7004H67.6001C68.4001 67.7004 69.1001 67.0004 69.1001 66.2004V44.9004H51.8001C51.5001 50.8004 46.5001 55.6004 40.5001 55.6004C34.5001 55.6004 29.5001 50.9004 29.2001 44.9004H12.1001Z" fill="#9B9B9B"/>
<path d="M25.1 44.5992C25 43.8992 24.9 43.2992 24.8 42.6992L25.8 42.5992C25.9 43.1992 26 43.7992 26.1 44.4992L25.1 44.5992ZM24.6 40.6992C24.5 39.9992 24.5 39.2992 24.5 38.5992C24.5 37.8992 24.5 37.2992 24.6 36.5992L25.6 36.6992C25.6 37.2992 25.5 37.8992 25.5 38.5992C25.5 39.2992 25.5 39.9992 25.6 40.5992L24.6 40.6992ZM25.8 34.7992L24.8 34.5992C25 33.1992 25.4 31.8992 25.9 30.6992L26.8 31.0992C26.4 32.1992 26.1 33.3992 25.8 34.7992ZM27.8 29.2992L26.9 28.7992C27.6 27.5992 28.5 26.4992 29.5 25.5992L30.2 26.2992C29.3 27.1992 28.5 28.1992 27.8 29.2992ZM44.4 28.3992L44.2 27.3992C45.5 27.0992 46.3 26.2992 46.5 25.1992L47.5 25.3992C47.2 26.9992 46 28.0992 44.4 28.3992ZM42.2 28.3992C40.7 28.0992 39.5 27.0992 38.8 25.7992L39.7 25.3992C40.2 26.4992 41.2 27.1992 42.4 27.4992L42.2 28.3992ZM31.7 25.0992L31.1 24.2992C32.2 23.4992 33.4 22.8992 34.8 22.3992L35.1 23.2992C33.9 23.7992 32.7 24.3992 31.7 25.0992ZM46.1 23.8992C45.5 23.2992 44.3 22.7992 42.7 22.4992L42.9 21.4992C44.7 21.7992 46 22.3992 46.8 23.0992L46.1 23.8992ZM38.3 23.5992C38.3 23.4992 38.3 23.3992 38.3 23.2992C38.3 22.9992 38.3 22.7992 38.3 22.4992C37.9 22.5992 37.4 22.6992 37 22.7992L36.8 21.7992C37.4 21.6992 37.9 21.5992 38.5 21.4992C38.6 20.8992 38.9 20.1992 39.2 19.4992L40.1 19.8992C39.9 20.3992 39.7 20.8992 39.6 21.3992C40 21.3992 40.4 21.3992 40.8 21.3992H40.9V22.3992H40.8C40.3 22.3992 39.9 22.3992 39.4 22.4992C39.4 22.7992 39.3 23.0992 39.3 23.3992C39.3 23.4992 39.3 23.5992 39.3 23.5992H38.3ZM41 18.1992L40.1 17.6992C40.2 17.4992 40.3 17.2992 40.5 17.0992C41.1 16.0992 41.8 15.1992 42.6 14.3992L43.3 15.0992C42.6 15.8992 41.9 16.7992 41.3 17.6992C41.2 17.7992 41.1 17.9992 41 18.1992ZM44.6 13.6992L44 12.8992C45 11.9992 46.2 11.1992 47.4 10.5992L47.9 11.4992C46.7 12.0992 45.6 12.7992 44.6 13.6992ZM49.6 10.6992L49.3 9.79922C50.6 9.29922 51.9 8.99922 53.3 8.89922L53.4 9.89922C52 9.99922 50.8 10.1992 49.6 10.6992ZM59.1 10.1992C59.1 10.1992 57.5 9.69922 55.3 9.69922V8.69922C57.7 8.69922 59.3 9.19922 59.4 9.19922L59.1 10.1992Z" fill="#9B9B9B"/>
<path d="M71.4997 10.0004C72.4938 10.0004 73.2997 9.1945 73.2997 8.20039C73.2997 7.20628 72.4938 6.40039 71.4997 6.40039C70.5056 6.40039 69.6997 7.20628 69.6997 8.20039C69.6997 9.1945 70.5056 10.0004 71.4997 10.0004Z" fill="white"/>
<path d="M71.4998 10.4996C71.3998 10.4996 71.1998 10.4996 71.0998 10.4996C69.8998 10.1996 68.9998 8.99955 69.2998 7.79955C69.4998 6.59955 70.6998 5.69955 71.9998 5.99955C73.1998 6.19955 74.0998 7.39955 73.7998 8.69955C73.5998 9.69955 72.5998 10.4996 71.4998 10.4996ZM71.4998 6.89955C70.8998 6.89955 70.2998 7.29955 70.1998 7.99955C70.0998 8.69955 70.4998 9.39955 71.1998 9.49955C71.8998 9.59955 72.5998 9.19955 72.6998 8.49955C72.7998 7.79955 72.3998 7.09955 71.6998 6.99955C71.6998 6.89955 71.5998 6.89955 71.4998 6.89955Z" fill="#9B9B9B"/>
<path d="M70.0001 9.19974C70.7001 10.1997 70.4001 11.5997 69.4001 12.2997C68.4001 12.9997 63.9001 14.2997 63.2001 13.2997C62.5001 12.2997 65.9001 9.29974 66.9001 8.59974C67.9001 7.89974 69.3001 8.09974 70.0001 9.19974Z" fill="white"/>
<path d="M64.3001 14.1994C63.1001 14.1994 62.8001 13.7994 62.7001 13.5994C61.5001 11.8994 66.5001 8.19943 66.5001 8.19943C67.7001 7.29943 69.5001 7.69943 70.3001 8.89943C70.7001 9.49943 70.9001 10.1994 70.7001 10.8994C70.6001 11.5994 70.2001 12.1994 69.6001 12.6994C69.0001 13.0994 67.5001 13.5994 66.2001 13.8994C65.4001 14.0994 64.8001 14.1994 64.3001 14.1994ZM68.1001 8.69943C67.8001 8.69943 67.4001 8.79943 67.1001 8.99943C66.6001 9.29943 65.6001 10.1994 64.7001 11.1994C63.4001 12.5994 63.5001 12.9994 63.5001 12.9994C63.6001 13.0994 64.2001 13.2994 66.0001 12.8994C67.4001 12.5994 68.6001 12.0994 69.1001 11.7994C69.5001 11.4994 69.7001 11.0994 69.8001 10.6994C69.9001 10.2994 69.8001 9.79943 69.5001 9.39943C69.2001 8.99943 68.7001 8.69943 68.1001 8.69943Z" fill="#9B9B9B"/>
<path d="M69.3668 8.68221C69.5063 7.9217 67.7258 6.95787 65.3899 6.52945C63.054 6.10103 61.0473 6.37026 60.9078 7.13077C60.7683 7.89129 62.5489 8.85511 64.8848 9.28353C67.2206 9.71195 69.2273 9.44273 69.3668 8.68221Z" fill="#62E2BB"/>
<path d="M66.9999 9.99967C66.2999 9.99967 65.5999 9.89967 64.7999 9.79967C63.5999 9.59967 62.4999 9.19967 61.6999 8.79967C60.4999 8.09967 60.2999 7.49967 60.3999 7.09967C60.4999 6.69967 60.8999 6.09967 62.2999 5.89967C63.1999 5.79967 64.3999 5.79967 65.5999 5.99967C66.7999 6.19967 67.8999 6.59967 68.6999 6.99967C69.8999 7.69967 70.0999 8.29967 69.9999 8.69967C69.8999 9.09967 69.4999 9.69967 68.0999 9.89967C67.7999 9.99967 67.3999 9.99967 66.9999 9.99967ZM61.3999 7.19967C61.3999 7.49967 62.4999 8.29967 64.9999 8.79967C67.4999 9.29967 68.7999 8.79967 68.8999 8.59967C68.8999 8.29967 67.7999 7.49967 65.2999 6.99967C62.8999 6.59967 61.4999 6.99967 61.3999 7.19967Z" fill="#9B9B9B"/>
</svg>
